<svg height="48pt" viewBox="0 0 48 48" width="48pt" xmlns="http://www.w3.org/2000/svg" xmlns:xlink="http://www.w3.org/1999/xlink"><linearGradient id="a" gradientTransform="matrix(41.26 0 0 45.921 3.37 1.12)" gradientUnits="userSpaceOnUse" x1="0" x2="1" y1=".5" y2=".5"><stop offset="0" stop-color="#0ff"/><stop offset=".98260869565" stop-color="#a553a8"/></linearGradient><path d="m12.99 11.55c-.9.646-2.152.442-2.795-.455-.643-.897-.435-2.149.465-2.795l11.496-6.757c.951-.559 2.5-.565 3.456-.013l17.286 9.98c.956.552 1.732 1.896 1.732 3v18.07c0 1.104-.774 2.452-1.727 3.009l-19.176 11.212c-.953.557-1.727.113-1.727-.991v-12.09c0-1.104.896-2 2-2 1.104 0 2 .896 2 2v5.3c0 .552.387.775.865.498l13.765-7.998v-16.7l-16.51-9.53zm5.59 28.63c.944.574 1.248 1.806.68 2.75-.568.944-1.796 1.248-2.74.68l-11.403-6.356c-.964-.538-1.747-1.87-1.747-2.974v-20.47c0-1.104.776-1.552 1.732-1l17.922 10.35c.478.276 1.258.283 1.741.016l10.255-5.676c.905-.635 2.158-.42 2.795.48.637.9.42 2.15-.485 2.79l-11.488 6.63c-.956.552-2.508.552-3.464 0l-15.008-8.66v15.29z" fill="url(#a)" fill-rule="evenodd"/></svg>